<svg width="85" height="48" viewBox="0 0 85 48" fill="none" xmlns="http://www.w3.org/2000/svg">
<path d="M48.8564 1.8761C49.7352 1.8761 50.4457 2.5863 50.4457 3.46521V22.5348C50.4457 23.412 49.7352 24.1239 48.8564 24.1239H36.1436C35.2664 24.1239 34.5544 23.412 34.5544 22.5348V3.46521C34.5544 2.5863 35.2664 1.8761 36.1436 1.8761H48.8564ZM48.8564 0.287109H36.1436C34.3924 0.287109 32.9653 1.7124 32.9653 3.46521V22.5348C32.9653 24.2874 34.3924 25.7129 36.1436 25.7129H48.8564C50.6091 25.7129 52.0347 24.2874 52.0347 22.5348V3.46521C52.0347 1.7124 50.6091 0.287109 48.8564 0.287109Z" fill="#1D2B3A"/>
<path d="M39.3218 10.6162C39.3218 10.1759 39.6777 9.8219 40.1163 9.8219H48.0619C48.5021 9.8219 48.8565 10.1759 48.8565 10.6162C48.8565 11.0549 48.5021 11.4109 48.0619 11.4109H40.1163C39.6777 11.4109 39.3218 11.0549 39.3218 10.6162Z" fill="#1D2B3A"/>
<path d="M39.3218 5.84912C39.3218 5.40881 39.6777 5.05444 40.1163 5.05444H48.0619C48.5021 5.05444 48.8565 5.40881 48.8565 5.84912C48.8565 6.28772 48.5021 6.64368 48.0619 6.64368H40.1163C39.6777 6.64368 39.3218 6.28772 39.3218 5.84912Z" fill="#1D2B3A"/>
<path d="M39.3218 15.3837C39.3218 14.9434 39.6777 14.5891 40.1163 14.5891H48.0619C48.5021 14.5891 48.8565 14.9434 48.8565 15.3837C48.8565 15.8223 48.5021 16.1782 48.0619 16.1782H40.1163C39.6777 16.1782 39.3218 15.8223 39.3218 15.3837Z" fill="#1D2B3A"/>
<path d="M39.3218 20.151C39.3218 19.7106 39.6777 19.3564 40.1163 19.3564H48.0619C48.5021 19.3564 48.8565 19.7106 48.8565 20.151C48.8565 20.5896 48.5021 20.9456 48.0619 20.9456H40.1163C39.6777 20.9456 39.3218 20.5896 39.3218 20.151Z" fill="#1D2B3A"/>
<path d="M36.1436 10.6162C36.1436 10.1759 36.4995 9.8219 36.938 9.8219C37.3782 9.8219 37.7327 10.1759 37.7327 10.6162C37.7327 11.0549 37.3782 11.4109 36.938 11.4109C36.4995 11.4109 36.1436 11.0549 36.1436 10.6162Z" fill="#1D2B3A"/>
<path d="M36.1436 5.84912C36.1436 5.40881 36.4995 5.05444 36.938 5.05444C37.3782 5.05444 37.7327 5.40881 37.7327 5.84912C37.7327 6.28772 37.3782 6.64368 36.938 6.64368C36.4995 6.64368 36.1436 6.28772 36.1436 5.84912Z" fill="#1D2B3A"/>
<path d="M36.1436 15.3837C36.1436 14.9434 36.4995 14.5891 36.938 14.5891C37.3782 14.5891 37.7327 14.9434 37.7327 15.3837C37.7327 15.8223 37.3782 16.1782 36.938 16.1782C36.4995 16.1782 36.1436 15.8223 36.1436 15.3837Z" fill="#1D2B3A"/>
<path d="M36.1436 20.151C36.1436 19.7106 36.4995 19.3564 36.938 19.3564C37.3782 19.3564 37.7327 19.7106 37.7327 20.151C37.7327 20.5896 37.3782 20.9456 36.938 20.9456C36.4995 20.9456 36.1436 20.5896 36.1436 20.151Z" fill="#1D2B3A"/>
<path d="M4.89 42.1629H1.85L1.29 43.7129H0.33L2.85 36.7829H3.9L6.41 43.7129H5.45L4.89 42.1629ZM4.63 41.4229L3.37 37.9029L2.11 41.4229H4.63ZM13.1883 38.7629C12.9949 38.3562 12.7149 38.0429 12.3483 37.8229C11.9816 37.5962 11.5549 37.4829 11.0683 37.4829C10.5816 37.4829 10.1416 37.5962 9.74828 37.8229C9.36161 38.0429 9.05495 38.3629 8.82828 38.7829C8.60828 39.1962 8.49828 39.6762 8.49828 40.2229C8.49828 40.7696 8.60828 41.2496 8.82828 41.6629C9.05495 42.0762 9.36161 42.3962 9.74828 42.6229C10.1416 42.8429 10.5816 42.9529 11.0683 42.9529C11.7483 42.9529 12.3083 42.7496 12.7483 42.3429C13.1883 41.9362 13.4449 41.3862 13.5183 40.6929H10.7383V39.9529H14.4883V40.6529C14.4349 41.2262 14.2549 41.7529 13.9483 42.2329C13.6416 42.7062 13.2383 43.0829 12.7383 43.3629C12.2383 43.6362 11.6816 43.7729 11.0683 43.7729C10.4216 43.7729 9.83161 43.6229 9.29828 43.3229C8.76495 43.0162 8.34161 42.5929 8.02828 42.0529C7.72161 41.5129 7.56828 40.9029 7.56828 40.2229C7.56828 39.5429 7.72161 38.9329 8.02828 38.3929C8.34161 37.8462 8.76495 37.4229 9.29828 37.1229C9.83161 36.8162 10.4216 36.6629 11.0683 36.6629C11.8083 36.6629 12.4616 36.8462 13.0283 37.2129C13.6016 37.5796 14.0183 38.0962 14.2783 38.7629H13.1883ZM17.0015 37.4829V39.8129H19.5415V40.5629H17.0015V42.9629H19.8415V43.7129H16.0915V36.7329H19.8415V37.4829H17.0015ZM27.0984 43.7129H26.1884L22.5284 38.1629V43.7129H21.6184V36.7329H22.5284L26.1884 42.2729V36.7329H27.0984V43.7129ZM31.2197 36.7429C31.9797 36.7429 32.6364 36.8862 33.1897 37.1729C33.7497 37.4529 34.1764 37.8562 34.4697 38.3829C34.7697 38.9096 34.9197 39.5296 34.9197 40.2429C34.9197 40.9562 34.7697 41.5762 34.4697 42.1029C34.1764 42.6229 33.7497 43.0229 33.1897 43.3029C32.6364 43.5762 31.9797 43.7129 31.2197 43.7129H29.0497V36.7429H31.2197ZM31.2197 42.9629C32.1197 42.9629 32.8064 42.7262 33.2797 42.2529C33.753 41.7729 33.9897 41.1029 33.9897 40.2429C33.9897 39.3762 33.7497 38.6996 33.2697 38.2129C32.7964 37.7262 32.113 37.4829 31.2197 37.4829H29.9597V42.9629H31.2197ZM40.64 42.1629H37.6L37.04 43.7129H36.08L38.6 36.7829H39.65L42.16 43.7129H41.2L40.64 42.1629ZM40.38 41.4229L39.12 37.9029L37.86 41.4229H40.38ZM50.7283 36.7929V43.7129H49.8183V38.5529L47.5183 43.7129H46.8783L44.5683 38.5429V43.7129H43.6583V36.7929H44.6383L47.1983 42.5129L49.7583 36.7929H50.7283ZM53.5816 37.4829V39.8129H56.1216V40.5629H53.5816V42.9629H56.4216V43.7129H52.6716V36.7329H56.4216V37.4829H53.5816ZM63.6785 43.7129H62.7685L59.1085 38.1629V43.7129H58.1985V36.7329H59.1085L62.7685 42.2729V36.7329H63.6785V43.7129ZM69.9198 36.7429V37.4829H68.0198V43.7129H67.1098V37.4829H65.1998V36.7429H69.9198ZM74.5999 43.7829C73.9533 43.7829 73.3633 43.6329 72.8299 43.3329C72.2966 43.0262 71.8733 42.6029 71.5599 42.0629C71.2533 41.5162 71.0999 40.9029 71.0999 40.2229C71.0999 39.5429 71.2533 38.9329 71.5599 38.3929C71.8733 37.8462 72.2966 37.4229 72.8299 37.1229C73.3633 36.8162 73.9533 36.6629 74.5999 36.6629C75.2533 36.6629 75.8466 36.8162 76.3799 37.1229C76.9133 37.4229 77.3333 37.8429 77.6399 38.3829C77.9466 38.9229 78.0999 39.5362 78.0999 40.2229C78.0999 40.9096 77.9466 41.5229 77.6399 42.0629C77.3333 42.6029 76.9133 43.0262 76.3799 43.3329C75.8466 43.6329 75.2533 43.7829 74.5999 43.7829ZM74.5999 42.9929C75.0866 42.9929 75.5233 42.8796 75.9099 42.6529C76.3033 42.4262 76.6099 42.1029 76.8299 41.6829C77.0566 41.2629 77.1699 40.7762 77.1699 40.2229C77.1699 39.6629 77.0566 39.1762 76.8299 38.7629C76.6099 38.3429 76.3066 38.0196 75.9199 37.7929C75.5333 37.5662 75.0933 37.4529 74.5999 37.4529C74.1066 37.4529 73.6666 37.5662 73.2799 37.7929C72.8933 38.0196 72.5866 38.3429 72.3599 38.7629C72.1399 39.1762 72.0299 39.6629 72.0299 40.2229C72.0299 40.7762 72.1399 41.2629 72.3599 41.6829C72.5866 42.1029 72.8933 42.4262 73.2799 42.6529C73.6733 42.8796 74.1133 42.9929 74.5999 42.9929ZM81.9113 43.7829C81.4513 43.7829 81.0379 43.7029 80.6713 43.5429C80.3113 43.3762 80.0279 43.1496 79.8213 42.8629C79.6146 42.5696 79.5079 42.2329 79.5013 41.8529H80.4713C80.5046 42.1796 80.6379 42.4562 80.8713 42.6829C81.1113 42.9029 81.4579 43.0129 81.9113 43.0129C82.3446 43.0129 82.6846 42.9062 82.9313 42.6929C83.1846 42.4729 83.3113 42.1929 83.3113 41.8529C83.3113 41.5862 83.2379 41.3696 83.0913 41.2029C82.9446 41.0362 82.7613 40.9096 82.5413 40.8229C82.3213 40.7362 82.0246 40.6429 81.6513 40.5429C81.1913 40.4229 80.8213 40.3029 80.5413 40.1829C80.2679 40.0629 80.0313 39.8762 79.8313 39.6229C79.6379 39.3629 79.5413 39.0162 79.5413 38.5829C79.5413 38.2029 79.6379 37.8662 79.8313 37.5729C80.0246 37.2796 80.2946 37.0529 80.6413 36.8929C80.9946 36.7329 81.3979 36.6529 81.8513 36.6529C82.5046 36.6529 83.0379 36.8162 83.4513 37.1429C83.8713 37.4696 84.1079 37.9029 84.1613 38.4429H83.1613C83.1279 38.1762 82.9879 37.9429 82.7413 37.7429C82.4946 37.5362 82.1679 37.4329 81.7613 37.4329C81.3813 37.4329 81.0713 37.5329 80.8313 37.7329C80.5913 37.9262 80.4713 38.1996 80.4713 38.5529C80.4713 38.8062 80.5413 39.0129 80.6813 39.1729C80.8279 39.3329 81.0046 39.4562 81.2113 39.5429C81.4246 39.6229 81.7213 39.7162 82.1013 39.8229C82.5613 39.9496 82.9313 40.0762 83.2113 40.2029C83.4913 40.3229 83.7313 40.5129 83.9313 40.7729C84.1313 41.0262 84.2313 41.3729 84.2313 41.8129C84.2313 42.1529 84.1413 42.4729 83.9613 42.7729C83.7813 43.0729 83.5146 43.3162 83.1613 43.5029C82.8079 43.6896 82.3913 43.7829 81.9113 43.7829Z" fill="#1D2B3A"/>
</svg>
