<svg width="45" height="50" viewBox="0 0 45 50" fill="none" xmlns="http://www.w3.org/2000/svg">
<path d="M13.2435 23.2405C15.3761 25.3649 18.1746 26.6911 21.1695 26.9965C24.1642 27.3018 27.1729 26.5675 29.6905 24.9168C30.3959 24.4505 30.8541 23.6918 30.9389 22.8506C31.0235 22.0094 30.7256 21.1745 30.1274 20.5771L29.625 20.0805L30.2879 19.4176C30.7179 18.987 30.9128 18.3749 30.8106 17.7748C30.7084 17.175 30.3221 16.6618 29.7737 16.3977L26.0313 14.5934C25.7416 14.4536 25.395 14.516 25.1722 14.748L24.0012 15.9637H23.9655C22.3944 15.3346 21.1516 14.0864 20.5292 12.5126L21.7448 11.297C21.9702 11.0755 22.0314 10.7357 21.8966 10.4497L20.0834 6.70137C19.8188 6.15358 19.3052 5.76768 18.7054 5.6663C18.1053 5.5647 17.4934 5.75981 17.0632 6.19005L16.3557 6.89459C15.5558 7.696 15.0028 8.71031 14.7631 9.81714C14.5232 10.924 14.6065 12.0762 15.0034 13.137C15.7181 15.0433 16.8332 16.7742 18.2734 18.213C19.7139 19.6517 21.446 20.765 23.3529 21.4776C25.0437 22.1094 26.9307 21.9296 28.4717 20.9902C28.5018 21.041 28.5376 21.0878 28.5787 21.1299L29.0751 21.6263C29.3575 21.9083 29.4983 22.302 29.4585 22.6991C29.4186 23.096 29.2026 23.4541 28.87 23.6745C26.6398 25.134 23.9756 25.7828 21.3241 25.5122C18.6723 25.2416 16.1944 24.068 14.3047 22.1882C12.8272 20.7127 11.7756 18.8655 11.2609 16.842C10.7463 14.8183 10.7879 12.6932 11.3812 10.691C11.9746 8.68886 13.0976 6.88434 14.6317 5.46778C16.7682 3.51585 19.5549 2.42871 22.4488 2.41836C25.3428 2.40778 28.1369 3.47477 30.2878 5.4112C32.0293 6.98328 33.2499 9.04906 33.7869 11.3328C34.3237 13.6165 34.1517 16.0097 33.293 18.193C33.1379 18.5755 33.3223 19.0114 33.7048 19.1665C34.0872 19.3215 34.523 19.1372 34.6783 18.7549C35.6522 16.2893 35.8494 13.5851 35.2439 11.0041C34.6383 8.42324 33.2586 6.08914 31.2897 4.31381C28.8631 2.1286 25.7104 0.924523 22.4449 0.935932C19.1794 0.947548 16.0354 2.17398 13.624 4.37618C11.8922 5.97337 10.6239 8.00848 9.95314 10.267C9.28258 12.5252 9.23406 14.9228 9.81319 17.2062C10.3923 19.4896 11.5775 21.575 13.2435 23.2405ZM23.8729 20.0865C22.164 19.4475 20.6119 18.4491 19.3219 17.1588C18.0315 15.8687 17.0332 14.3167 16.3942 12.6078C16.0989 11.8155 16.0373 10.9555 16.2165 10.1292C16.3956 9.30297 16.808 8.54572 17.4048 7.94692L18.1122 7.23946C18.1838 7.16503 18.2825 7.12315 18.3857 7.12356H18.4541C18.5837 7.14056 18.6957 7.22226 18.7513 7.34044L20.3296 10.6103L19.4378 11.5021C19.2489 11.6939 19.1203 11.9367 19.0674 12.2009C19.0146 12.4648 19.0401 12.7385 19.1406 12.9884C19.903 14.966 21.4521 16.5387 23.4182 17.3312L23.5044 17.3639C23.764 17.4676 24.0489 17.4913 24.3222 17.432C24.5955 17.3727 24.8447 17.2329 25.0381 17.031L25.8733 16.163L29.1432 17.7355C29.2574 17.7909 29.3379 17.8978 29.359 18.0229C29.3804 18.1479 29.3397 18.2756 29.2502 18.3656L28.5427 19.0731C27.9435 19.6721 27.1848 20.0862 26.3566 20.2657C25.5287 20.4455 24.6666 20.3832 23.8729 20.0865Z" fill="#1D2B3A"/>
<path d="M0.43 41.5741C0.43 40.8941 0.583333 40.2841 0.89 39.7441C1.19667 39.1975 1.61333 38.7708 2.14 38.4641C2.67333 38.1575 3.26333 38.0041 3.91 38.0041C4.67 38.0041 5.33333 38.1875 5.9 38.5541C6.46667 38.9208 6.88 39.4408 7.14 40.1141H6.05C5.85667 39.6941 5.57667 39.3708 5.21 39.1441C4.85 38.9175 4.41667 38.8041 3.91 38.8041C3.42333 38.8041 2.98667 38.9175 2.6 39.1441C2.21333 39.3708 1.91 39.6941 1.69 40.1141C1.47 40.5275 1.36 41.0141 1.36 41.5741C1.36 42.1275 1.47 42.6141 1.69 43.0341C1.91 43.4475 2.21333 43.7675 2.6 43.9941C2.98667 44.2208 3.42333 44.3341 3.91 44.3341C4.41667 44.3341 4.85 44.2241 5.21 44.0041C5.57667 43.7775 5.85667 43.4541 6.05 43.0341H7.14C6.88 43.7008 6.46667 44.2175 5.9 44.5841C5.33333 44.9441 4.67 45.1241 3.91 45.1241C3.26333 45.1241 2.67333 44.9741 2.14 44.6741C1.61333 44.3675 1.19667 43.9441 0.89 43.4041C0.583333 42.8641 0.43 42.2541 0.43 41.5741ZM9.80461 38.8341V41.1641H12.3446V41.9141H9.80461V44.3141H12.6446V45.0641H8.89461V38.0841H12.6446V38.8341H9.80461ZM19.9016 45.0641H18.9916L15.3316 39.5141V45.0641H14.4216V38.0841H15.3316L18.9916 43.6241V38.0841H19.9016V45.0641ZM26.1428 38.0941V38.8341H24.2428V45.0641H23.3328V38.8341H21.4228V38.0941H26.1428ZM31.333 45.0641L29.673 42.2141H28.573V45.0641H27.663V38.0941H29.913C30.4396 38.0941 30.883 38.1841 31.243 38.3641C31.6096 38.5441 31.883 38.7875 32.063 39.0941C32.243 39.4008 32.333 39.7508 32.333 40.1441C32.333 40.6241 32.193 41.0475 31.913 41.4141C31.6396 41.7808 31.2263 42.0241 30.673 42.1441L32.423 45.0641H31.333ZM28.573 41.4841H29.913C30.4063 41.4841 30.7763 41.3641 31.023 41.1241C31.2696 40.8775 31.393 40.5508 31.393 40.1441C31.393 39.7308 31.2696 39.4108 31.023 39.1841C30.783 38.9575 30.413 38.8441 29.913 38.8441H28.573V41.4841ZM38.267 43.5141H35.227L34.667 45.0641H33.707L36.227 38.1341H37.277L39.787 45.0641H38.827L38.267 43.5141ZM38.007 42.7741L36.747 39.2541L35.487 42.7741H38.007ZM42.1952 44.3241H44.6352V45.0641H41.2852V38.0941H42.1952V44.3241Z" fill="#1D2B3A"/>
</svg>
