<svg width="32" height="51" viewBox="0 0 32 51" fill="none" xmlns="http://www.w3.org/2000/svg">
<path d="M6.56653 26.0103V11.4232L16.0001 1.98969L25.4335 11.4232V16.189V26.0103H6.56653Z" stroke="#C61D35" stroke-width="2.1" stroke-linecap="round" stroke-linejoin="round"/>
<path d="M12.8605 25.0103V18.2377H19.1395V25.0103" stroke="#C61D35" stroke-width="2.1" stroke-linecap="round" stroke-linejoin="round"/>
<path d="M1.68 39.0403V46.0103H0.77V39.0403H1.68ZM9.11094 46.0103H8.20094L4.54094 40.4603V46.0103H3.63094V39.0303H4.54094L8.20094 44.5703V39.0303H9.11094V46.0103ZM11.9722 39.0403V46.0103H11.0622V39.0403H11.9722ZM12.4922 37.5303L10.3622 38.6703V37.9903L12.4922 36.7403V37.5303ZM13.5831 42.5203C13.5831 41.8403 13.7365 41.2303 14.0431 40.6903C14.3498 40.1436 14.7665 39.717 15.2931 39.4103C15.8265 39.1036 16.4165 38.9503 17.0631 38.9503C17.8231 38.9503 18.4865 39.1336 19.0531 39.5003C19.6198 39.867 20.0331 40.387 20.2931 41.0603H19.2031C19.0098 40.6403 18.7298 40.317 18.3631 40.0903C18.0031 39.8636 17.5698 39.7503 17.0631 39.7503C16.5765 39.7503 16.1398 39.8636 15.7531 40.0903C15.3665 40.317 15.0631 40.6403 14.8431 41.0603C14.6231 41.4736 14.5131 41.9603 14.5131 42.5203C14.5131 43.0736 14.6231 43.5603 14.8431 43.9803C15.0631 44.3936 15.3665 44.7136 15.7531 44.9403C16.1398 45.167 16.5765 45.2803 17.0631 45.2803C17.5698 45.2803 18.0031 45.1703 18.3631 44.9503C18.7298 44.7236 19.0098 44.4003 19.2031 43.9803H20.2931C20.0331 44.647 19.6198 45.1636 19.0531 45.5303C18.4865 45.8903 17.8231 46.0703 17.0631 46.0703C16.4165 46.0703 15.8265 45.9203 15.2931 45.6203C14.7665 45.3136 14.3498 44.8903 14.0431 44.3503C13.7365 43.8103 13.5831 43.2003 13.5831 42.5203ZM22.9577 39.0403V46.0103H22.0477V39.0403H22.9577ZM28.0687 46.0803C27.422 46.0803 26.832 45.9303 26.2987 45.6303C25.7653 45.3236 25.342 44.9003 25.0287 44.3603C24.722 43.8136 24.5687 43.2003 24.5687 42.5203C24.5687 41.8403 24.722 41.2303 25.0287 40.6903C25.342 40.1436 25.7653 39.7203 26.2987 39.4203C26.832 39.1136 27.422 38.9603 28.0687 38.9603C28.722 38.9603 29.3153 39.1136 29.8487 39.4203C30.382 39.7203 30.802 40.1403 31.1087 40.6803C31.4153 41.2203 31.5687 41.8336 31.5687 42.5203C31.5687 43.207 31.4153 43.8203 31.1087 44.3603C30.802 44.9003 30.382 45.3236 29.8487 45.6303C29.3153 45.9303 28.722 46.0803 28.0687 46.0803ZM28.0687 45.2903C28.5553 45.2903 28.992 45.177 29.3787 44.9503C29.772 44.7236 30.0787 44.4003 30.2987 43.9803C30.5253 43.5603 30.6387 43.0736 30.6387 42.5203C30.6387 41.9603 30.5253 41.4736 30.2987 41.0603C30.0787 40.6403 29.7753 40.317 29.3887 40.0903C29.002 39.8636 28.562 39.7503 28.0687 39.7503C27.5753 39.7503 27.1353 39.8636 26.7487 40.0903C26.362 40.317 26.0553 40.6403 25.8287 41.0603C25.6087 41.4736 25.4987 41.9603 25.4987 42.5203C25.4987 43.0736 25.6087 43.5603 25.8287 43.9803C26.0553 44.4003 26.362 44.7236 26.7487 44.9503C27.142 45.177 27.582 45.2903 28.0687 45.2903Z" fill="#C61D35"/>
</svg>
