<svg width="31" height="50" viewBox="0 0 31 50" fill="none" xmlns="http://www.w3.org/2000/svg">
<path d="M21.4823 6.76947C21.4823 3.47113 18.7983 0.78717 15.5 0.78717C12.2018 0.78717 9.5177 3.47113 9.5177 6.76947C9.5177 10.0678 12.2018 12.7518 15.5 12.7518C18.7983 12.7518 21.4823 10.0678 21.4823 6.76947ZM15.5 10.7576C13.3005 10.7576 11.5118 8.96893 11.5118 6.76947C11.5118 4.57001 13.3005 2.78131 15.5 2.78131C17.6995 2.78131 19.4882 4.57001 19.4882 6.76947C19.4882 8.96893 17.6995 10.7576 15.5 10.7576Z" fill="#1D2B3A"/>
<path d="M22.9465 17.8355C21.078 15.6083 18.3022 14.2485 15.339 14.2485C9.84129 14.2485 5.36853 18.7211 5.36853 24.2188C5.36853 25.3196 6.26187 26.2128 7.36263 26.2128H21.3213H24.7078C27.1172 25.9808 24.1943 19.1176 22.9465 17.8355ZM21.3213 24.2188H19.3272H7.36263C7.36263 19.8139 10.9341 16.2425 15.339 16.2425C17.7938 16.2425 19.9693 17.3651 21.427 19.1119C21.4489 19.138 21.4689 19.1697 21.4908 19.1956C21.9016 19.7021 22.2625 20.2487 22.5417 20.8448C23.0243 21.8718 23.3154 23.0084 23.3154 24.2188H21.3213Z" fill="#1D2B3A"/>
<path d="M5.43 40.2828C5.43 40.8628 5.23 41.3462 4.83 41.7328C4.43667 42.1128 3.83333 42.3028 3.02 42.3028H1.68V45.2128H0.77V38.2428H3.02C3.80667 38.2428 4.40333 38.4328 4.81 38.8128C5.22333 39.1928 5.43 39.6828 5.43 40.2828ZM3.02 41.5528C3.52667 41.5528 3.9 41.4428 4.14 41.2228C4.38 41.0028 4.5 40.6895 4.5 40.2828C4.5 39.4228 4.00667 38.9928 3.02 38.9928H1.68V41.5528H3.02ZM7.87102 38.9828V41.3128H10.411V42.0628H7.87102V44.4628H10.711V45.2128H6.96102V38.2328H10.711V38.9828H7.87102ZM16.158 45.2128L14.498 42.3628H13.398V45.2128H12.488V38.2428H14.738C15.2646 38.2428 15.708 38.3328 16.068 38.5128C16.4346 38.6928 16.708 38.9362 16.888 39.2428C17.068 39.5495 17.158 39.8995 17.158 40.2928C17.158 40.7728 17.018 41.1962 16.738 41.5628C16.4646 41.9295 16.0513 42.1728 15.498 42.2928L17.248 45.2128H16.158ZM13.398 41.6328H14.738C15.2313 41.6328 15.6013 41.5128 15.848 41.2728C16.0946 41.0262 16.218 40.6995 16.218 40.2928C16.218 39.8795 16.0946 39.5595 15.848 39.3328C15.608 39.1062 15.238 38.9928 14.738 38.9928H13.398V41.6328ZM22.912 38.2428V38.9828H19.882V41.3328H22.342V42.0728H19.882V45.2128H18.972V38.2428H22.912ZM25.321 38.2428V45.2128H24.411V38.2428H25.321ZM28.182 44.4728H30.622V45.2128H27.272V38.2428H28.182V44.4728Z" fill="#1D2B3A"/>
</svg>
